<?xml version="1.0" encoding="UTF-8"?>
<svg width="64" height="64" viewBox="0 0 64 64" fill="none" xmlns="http://www.w3.org/2000/svg">
  <defs>
    <linearGradient id="dragonGradient" x1="12" y1="8" x2="52" y2="56" gradientUnits="userSpaceOnUse">
      <stop stop-color="#51a0ff"/>
      <stop offset="1" stop-color="#1c3d86"/>
    </linearGradient>
  </defs>
  <path fill="url(#dragonGradient)" d="
    M37.2 4.5c-11 0-19.9 8.9-19.9 19.9 0 2.9.6 5.6 1.7 8.2L8 43.6c-1.6 1.6-1.6 4.1 0 5.7 1.6 1.6 4.1 1.6 5.7 0l10.9-10.9c2.5 1.1 5.2 1.7 8.2 1.7 11 0 19.9-8.9 19.9-19.9S48.2 4.5 37.2 4.5zm0 31c-6.1 0-11.1-5-11.1-11.1s5-11.1 11.1-11.1 11.1 5 11.1 11.1S43.3 35.5 37.2 35.5z"/>
  <path fill="#0f172a" fill-opacity=".8" d="
    M46 15.2c-3.4-3.4-8.9-3.4-12.3 0-1.1 1.1-1.9 2.4-2.3 3.8 1.2 0.5 2.4 1.2 3.4 2.2 1 1 1.7 2.2 2.2 3.4 1.4-0.3 2.7-1 3.8-2.1 3.4-3.4 3.4-8.9 0-12.3z"/>
</svg>
